/* XPM */
static char *result[] = {
/* columns rows colors chars-per-pixel */
"48 48 48 1 ",
"  c black",
". c #382523",
"X c #3D2C29",
"o c #5B3C34",
"O c #694633",
"+ c #774F38",
"@ c #45576C",
"# c #556270",
"$ c #696E75",
"% c #862136",
"& c #9F2436",
"* c #BE2633",
"= c #D93532",
"- c #94603C",
"; c #C46D63",
": c #CF7666",
"> c #E7B132",
", c #B18E58",
"< c #BF9D69",
"1 c #D48475",
"2 c #E08E79",
"3 c #C6A567",
"4 c #CDAB6D",
"5 c #CBAA72",
"6 c #D5B57B",
"7 c #F5DC49",
"8 c #F7E26B",
"9 c #5E7286",
"0 c #757A82",
"q c #BB6182",
"w c #6A8599",
"e c #82878F",
"r c #AAB8B7",
"t c #C79C8A",
"y c #E69E84",
"u c #F0979D",
"i c #C6AD86",
"p c #D5BF9D",
"a c #EBB490",
"s c #E4C98F",
"d c #E4CFA0",
"f c #F9CDAD",
"g c #E9D5A7",
"h c #FAD4B5",
"j c #F1E0B5",
"k c #E6BFC0",
"l c #EFCEC8",
"z c None",
/* pixels */
"zzzzzzzzzzzzzzzzzzjzzzzzzzjzzzzzzzzzzzzzzzzzzzzz",
"zzzzzzzzzzzzzzzzzjzzzzzzzzzjzzzzzzzzzzzzzzzzzzzz",
"zzzzzzzzzzzzzzzzzgzzzzzzzzzgzzzzzzzzzzzzzzzzzzzz",
"zzzzzzzzzzzzzzzzggzzzzzzzzzggzzzzzzzzzzzzzzzzzzz",
"zzzzzzzzzzzzzzzzdgzzzzzzzzzgdzzzzzzzzzzzzzzzzzzz",
"zzzzzzzzzzzzzzzzdddzzzzzzz4ddzzzzzzzzzzzzzzzzzzz",
"zzzzzzzzzzzzzzzzzdd4zz=*=,44zzzzzzzzzzzzzzzzzzzz",
"zzzzzzzzzzzzzzzzz4444,=**=,,zzzzzzzzzzzzzzzzzzzz",
"zzzzzzzzzzzzzzzzzz4,,=****=zzzzzzzzzzzzzzzzzzzzz",
"zzzzzzzzzzzzzzzzzzzz** * * zzzzzzzzzzzzzzzzzzzzz",
"zzzzzzzzzzzzzzzzzzzz&* * * zzzzzzzzzzzzzzzzzzzzz",
"zzzzzzzzzzzzzzzzzzzzz&**===zzzzzzzzzzzzzzzzzzzzz",
"zzzzzzzzzzzzzzzzzzzzy:&**=*zzzpzzzzzzzzzy7zzzzzz",
"zzzzzzzzzzzzzzzzzzzy:2:**=*%<ipzzzzzzzz*7y=zzzzz",
"zzzzzzzzzzzzzzzzzzy2:22&*=*%*<zzpzzzzzz27y*zzzzz",
"zzzzzzzzzzzzzzzzz22::22:&**%&*<ipzz*y*22yyzzzzzz",
"zzzzzzzzzzzzzzzyyy::22222::&&&*<zyyy*22278zzzzzz",
"zzzzzzzzzzzzzzyyy22yyy2yyyy+&*=yy22222:z78zzzzzz",
"zzzzzzzzzzzzz:y222yyyy2yy+-y:yyy2*2::zzz78zzzzzz",
"zzzzzzzzzzzzz:222yyyyy2+-yyy22y2::zzzzzz78zzzzzz",
"zzzzzzzzzzzz:22y:y1yy+-:2y1y2222:zzzzzzz78zzzzzz",
"zzzzzzzzzzzy22yy:yyw#:y2y2yy:::zzzzzzzz778zzzzzz",
"zzzzzzzzzzzy22yyz++:2yy2y22:zzzzzzzzzzz7788zzzzz",
"zzzzzzzzzzz22::zzz:2yyy2yy:zzzzzzzzzzz77778zzzzz",
"zzzzzzzzzzz:22zzzz22222222:zzzzzzzzzzzffhhhzzzzz",
"zzzzzzzzzzz=2yzzzz222yy2yy:zzzzzzzzzzzfffhtzzzzz",
"zzzzzzzzzzz&=-zzzzyy22y;y2:zzzzzzzzzzzffthhzzzzz",
"zzzzwzzzzzz&=yzzzz::y*=>==:zzzzzzzzzzzzfffhzzzzz",
"zzz9zw+-zzz*&=zzzz666>***>6zzzzzzzzzzzzafzzzzzzz",
"zzzz99O+++*==&zzzz55>&&>*=>zzzzzzzzzzzzaf*zzzzzz",
"zzzzzzzzOO***-&zzzoXr>&**>Xozzzzzzzzzzffzf*zzzzz",
"zzzzzzzzzz=**++--.oX9r&&*3XXozzzzzzzzffkzzzzzzzz",
"zzzzzzzzzzz===OO++--##3s33XXXozzzzzzz*lllzzzzzzz",
"zzzzzzzzzzzzzzzzzOO+++#3s3XXXXozzzzzzz*kzzzzzzzz",
"zzzzzzzzzzzzzzzzz.X@OO#9s3.XXXXzzzzzzzllzzzzzzzz",
"zzzzzzzzzzzzzzr9z.##@@63s3..XXXozzzzzz&kzzzzzzzz",
"zzzzzzzzzzzzzzr9#######3s3z..XXXzzzzzzq&*zzzzzzz",
"zzzzzzzzzzzzzzzrr999###3s3zz.XXXzzzzzz*uzzzzzzzz",
"zzzzzzzzzzzzzzzzXrrr99#3s3z...XXzzzzzzzuzzzzzzzz",
"zzzzzzzzzzzzzzzzXXX.rrr3s3z.....zzzzzzzuzzzzzzzz",
"zzzzzzzzzzzzzzzz.XXXzz63s3zz+---zzzzzz*zzzzzzzzz",
"zzzzzzzzzzzzzzzz....zz63s3zz+OOOzzzzzzzzzzzzzzzz",
"zzzzzzzzzzzzzzzzOO--zzz3szzz+++Ozzzzzzzzzzzzzzzz",
"zzzzzzzzzzzzzzzO++OzzzzzzzzzO++--9zzzz*zzzzzzzzz",
"zzzzzzzzzzzzzzzO+++zzzzzzzzz#OOO#99zzzzzzzzzzzzz",
"zzzzzzzzzzzzzzzOO+--9zzzzzzz#@@@###zzzzzzzzzzzzz",
"zzzzzzzzzzzzzzz#OOO##9zzzzzz$000eeeezzzzzzzzzzzz",
"zzzzzzzzzzzzzzz#@@@###zzzzz$$$00000eezzzzzzzzzzz"
};
