/* XPM */
static char *result[] = {
/* columns rows colors chars-per-pixel */
"64 64 166 2 ",
"   c #26AF15",
".  c #25A815",
"X  c #1E7C13",
"o  c #1D7312",
"O  c #1E7B13",
"+  c #26B015",
"@  c #1F8213",
"#  c #24A014",
"$  c #25A715",
"%  c #1F8313",
"&  c #25A615",
"*  c #1F7F13",
"=  c #28B217",
"-  c #218814",
";  c #24A114",
":  c #27B116",
">  c #1E7613",
",  c #1E7913",
"<  c #24A115",
"1  c #27B216",
"2  c #28B317",
"3  c #208413",
"4  c #1F8113",
"5  c #25A415",
"6  c #29BA17",
"7  c #218714",
"8  c #26AE15",
"9  c #26AD15",
"0  c #239C14",
"q  c #208713",
"w  c #24A214",
"e  c #1F8013",
"r  c #218C14",
"t  c #239B14",
"y  c #24A215",
"u  c #1E7813",
"i  c #229314",
"p  c #1F7C13",
"a  c #1F7D13",
"s  c #26AC15",
"d  c #218A14",
"f  c #25A915",
"g  c #24A314",
"h  c #208814",
"j  c #24A315",
"k  c #27AD17",
"l  c #208513",
"z  c #239714",
"x  c #27B217",
"c  c #208213",
"v  c #1D7512",
"b  c #239A14",
"n  c #1E7A13",
"m  c #27B215",
"M  c #1D6F12",
"N  c #208514",
"B  c #2ABB18",
"V  c #239914",
"C  c #27AF17",
"Z  c #228B15",
"A  c #26AC16",
"S  c #208613",
"D  c #228C15",
"F  c #1E7513",
"G  c #208614",
"H  c #2ABC18",
"J  c #27AB17",
"K  c #26AA16",
"L  c #24A415",
"P  c #1E7713",
"I  c #26A916",
"U  c #27B117",
"Y  c #218D14",
"T  c #208714",
"R  c #208114",
"E  c #25A515",
"W  c #218914",
"Q  c #218B14",
"!  c #29B418",
"~  c #26AD16",
"^  c #26AB16",
"/  c #229414",
"(  c #1F7E13",
")  c #28B417",
"_  c #26AB15",
"`  c #28B517",
"'  c #27AC17",
"]  c #1E7512",
"[  c #249F14",
"{  c #208813",
"}  c #27AE17",
"|  c #25A316",
" . c #208313",
".. c #239D14",
"X. c #26B115",
"o. c #208414",
"O. c #28B716",
"+. c #24A515",
"@. c #27B316",
"#. c #27B115",
"$. c #1D7412",
"%. c #27AB16",
"&. c #249E14",
"*. c #27AD16",
"=. c #25AA15",
"-. c #26A816",
";. c #25A315",
":. c #1F7B13",
">. c #229214",
",. c #208113",
"<. c #1F7A13",
"1. c #1E7612",
"2. c #249F15",
"3. c #239814",
"4. c #29B518",
"5. c #28B416",
"6. c #26AF16",
"7. c #208314",
"8. c #29BA18",
"9. c #27AE16",
"0. c #29BB18",
"q. c #24A015",
"w. c #229514",
"e. c #208913",
"r. c #28B218",
"t. c #1C6E12",
"y. c #1D7413",
"u. c #229115",
"i. c #27B016",
"p. c #1D7112",
"a. c #1C6D12",
"s. c #29B917",
"d. c #27B416",
"f. c #25A416",
"g. c #2AC218",
"h. c #249D15",
"j. c #1D7212",
"k. c #1E7413",
"l. c #208014",
"z. c #1D7313",
"x. c #228D14",
"c. c #239E14",
"v. c #25A215",
"b. c #229614",
"n. c #28B318",
"m. c #218514",
"M. c #28B117",
"N. c #1D7012",
"B. c #29B817",
"V. c #27B315",
"C. c #249E15",
"Z. c #28B817",
"A. c #27B017",
"S. c #27A917",
"D. c #26A716",
"F. c #28B418",
"G. c #218614",
"H. c #1F7F14",
"J. c #2ABD18",
"K. c #25A216",
"L. c #27B516",
"P. c #208214",
"I. c #1C6C12",
"U. c #2ABD19",
"Y. c #26AA17",
"T. c white",
/* pixels */
"            . X o O . + . @ # $ % $                   + & * = - ; & O . : > , < 1 2 3 . . 4 5 6 7 # 8                           ",
"    8 . 8   9 ; & . 8   9 0 q w . 8 +                   ; e & = r t 4 $ y u i 4 p a w 8 8 ; 4 s 2 d .     8 f 8                 ",
"  8 g h j 8 ; e ;     + . 3 k l $ . & $ 9 f 8       8 g h z q 8 x c # w e v e ; b 4 j     # n $ m f 8     $ e ;                 ",
"+ . 3 k 3 t 4 M 4 g     ; N B e V @ a 3 t 4 f f 8 + $ 3 C Z ; f A a # S b & . $ 3 C D . j c F $         + $ v 4 g       8 f 8   ",
"8 ; G H , 4 J * K r g $ e L 1 P a t I J * P U Y w   . T H R V r B e E j W g + . T H R V Q ! * & +       + & a K r w   + $ e ;   ",
"$ e j ~ 4 y ^ @ & = Q b 4 $ j * / 4 a 3 t e & = Q ; $ f ^ F ( E ) 3 & _ U Q ; $ f ^ F ( E ` 3 $ + 8 f 8 + $ 4 E ' d g   $ ] 4 ; ",
"[ 4 # @ ; w q 0 q 8 2 h w . q t * V & $ 8 g q 8 = p 4 w O , w f d g . { 8 = p e w O , w f W g 8 + $ e ;   8 g e R } 3 $ # O | 7 ",
" ...& 4 t S w 8 . 8 X.f 8 8 f & ] 4 j   8 . . + _ e t & e ;   9 g   . $   _ 4 ; $ e ;   8 .     + $ v 4 j   8 b o.B e V 4 P - k ",
"= d . g S w     +           + $ a K r j $ 4 f O.f # e # f 8 + . N ) G $ . +.; 8 8 f 8       . 8 + & p | h w $ 4 L @.P a t I J T ",
"#.f 8 8 f 8   8 f 8           ; e & U  .V 4 $ y 4 [ F 4 j     ; N B * V @ a 3 j 8 +     8 g - 5   . n p 0 W t 4 $ < u i 4 a 3 ; ",
"      + + + + $ e ;       8 g h z q j F * ..$ e O [ a K r g $ e L @.P a t I K  .f f 8 + $ 3 } D . f j n f 2 h w . e $.e ; & $ 8 ",
"    8 $ & $   $ v 4 g   + . 3 C Z y & 3 %.r ; $ . & 4 & = Q b 4 $ < u i 4 ( p u U Y w   . T H R V r B e $ m f 8 8 $ $ $ 8 + +   ",
"  8 w 4 O 4 w [ p K r w 8 ; G H R $   f _ ' d g   8 t S 8 2 h w . e $.e ; $ # e & = Q ; $ f ^ F ( E ) 3 $   + 8 .   + + 8 f 8   ",
"  f S V &.b e p a $ 2 r t * j *.o.w 8 g e R } 3 $ j q 0 8 m =.  8 $ $ $ 8 +   w q 8 = p e w O , ; w h j 8   8 g - 5   + $ @ $ + ",
"  8 w 4 O e t -.;.S $ x :.n ; G } 3 V * >.N B ,.&.3 k l $ . & $ 8 + +       + 8 .   _ 4 ; $ e w . 4 y . 8 + $ 3 } D . =.f X & + ",
"    8 . $ ; 4 a  .t 4 0 e ; # G H <.1.M e 2.: a 3.G B e V @ a 3 j 8       8 . 8 +   9 g 9 8 f 8 # p U Y w   . T H R V r B e & + ",
"    8 f     $ & . & ] * ..& e y ~ c 3.p K Y 0 n u 5 @.P a t I I c . +   8 g - 5     ; 4 . + + . n a $ = Q ; $ f ^ F ( E ) 3 $ + ",
"  8 w S w 8 + +   # p K r b 4 # @ ; ; e & = d / * $ < u i 4 ( a n ;   + $ 3 } D . j c $.#     ; o.! r 9 2 p e w O , w f W g 8   ",
"+ $ 4 V 4 . +   ; , , & = d 0 & 4 t q 0 q 8 2 W g . 4 v e ; $ $ w - w   . T H R V Q 4., e j $ e y 5.=.8 5 * ; $ e ;   8 . 8     ",
"+ & O [ 4 ; 8 j c $.b { 8 2 d . g S w 8 . 8 X.f 8 9 ; & . 8   . =.U Q ; $ f ^ F ( E ` G %.r b 4 #  .. w l w   8 f 8             ",
"+ $ 4 ; y * b Q ! * E f 8 X.f 8 8 f 8         + 8 w S g   + . O N 6.= p e w O , w f W w 9 = d 0 & 4 b S w     8 f 8             ",
"  8 ; c ^ e , 5 ` 3 $ +                   8 .   . 4 V 4 .   ; 7.8.9 f 4 ; $ e ;   8 f . { 9 2 d $ ..l w     8 g h g 8 + +       ",
"  + .  .) B N ;  .w   + +     8 f 8     8 g h j E O [ 4 w $ e j 9.W $ f     f 8     + 8 . 8 m =.$ e b 8   + . 3 k 3 $ . & $ 8   ",
"    8 f + @.f # 4 w 8 $ $ $   . e ;   + . 3 k l # 4 ; y e V 4 # @ ;     $ & . 8 + 8 . 8 + 8 $ $ [ $.4 g     ; N B e V @ a 3 j 8 ",
"  8 f       . 3 } 3 t c v e w [ $.4 g 8 ; G H e E w c ^ e , w $ 4 .   w 4 O 4 ; $ w h w $ ; 4 ( p P K r g $ e L @.P a t I J W $ ",
"+ $ e ;     ; G H , 4 ' :.i 4 n P ^ r t * j ~  .. .  .) 0.( $   f 8 w l b [ b e O ( } a o 4 0 I K 4 & = Q b 4 $ < u i 4 a 3 j 8 ",
"+ $ v 4 j $ e j ~ 4 y A p ( 0 2.n E U :.n ; 4 t 8 8 f   &  .j     ; e b n $.* t q.G H u n ' ( p 3 0 q 8 2 h w . e $.e ; & $ 8   ",
"+ & a K r b 4 # @ ; w q w ; X p M e E @ w $ O * w   + $ 3 C D . j c > [ $., w.* :.j ~ @ j ^ 4 [ . 9 . 8 X.f   8 $ $ $ 8 + +     ",
"+ $ 4 & 2 d 0 L n V S w   $ a J a [ & # $ 9 . w h w   . T H R V Q ! * ..( ^ Q / e # @ ; w q g   +         8 f 8 + +     8 . 8   ",
"  8 w S $ = d # > e 0 8   ; G B e b @ a 3 j 8 _ U Q ; $ f ^ F ( E ` 3 # 4 & = d 0 & 4 t S w               $ e ;       8 g h j 8 ",
"    8 0 T E f & ( K r g $ e L @.P a t I J W w e.8 2 p e w p , w f d g 8 w q 8 2 d . g S w               + $ v 4 g   + . 3 } l & ",
"  + . 3 k 3 $ # , E 2 r b 4 . y , i 4 a 3 j s j + E * ; & n < f s w 8 + 8 . 8 X.f 9 . . 8           8 f   $ a K r w 8 # ( r.* +.",
"+ 8 ; N B e V 4 P  .. = - ; w ( t.* ; & $   . 3 K c ;   $ * 2 l b W w . 8 +       g h j 8         8 w S ; # e $ 2 r t u M a > E ",
". $ e L @.P a t K J W =.=.$ 4 b * t 8 + + 8 w , y.$.$   ; G H , 4 k p , ;     + . 3 k 3 $     8 f . S w.e 4 &.u.i.= p p.> I T $ ",
"l t 4 $ < u i c P  .g 8 + $ e ; y 4 . + + . 4 V o n w $ e j ~ 4 y A n a.4 j     # * B e & + 8 g h w ; l b [ & I f . O 3.e & s.d.",
"= W w . e $. .^ c ;       8 ; c ^ G ; 8 8 ; 4 [ ( K r b 4 # @ ; w q b p I c ; . , F f. .$ + . 3 k l & t u $.O a @ ; @ $ g q 8 g.",
"#.f 8 8 $ $ . + . . 8     + . @ *.H Q f f q g $ 4 & = d 0 & 4 t S w $ @ h.p n V p.a.,...8   ; N B e V 4 F :.b E $ 9 f 8 8 . 8 m ",
"        + + +   . e ;       9 ..W . f 8 8 . 8 8 t S 8 2 d . w * ;     ;  .k > j.k.P ^ r g $ e L @.P a t K ' W f +               ",
"      8 $ & $   $ v 4 g   + . 3 } D f +     8 j h 0 8 X.f 8 $ n #     ; G H u O J a E = Q b 4 $ < , / e F p w 8 . 8             ",
"    8 w 4 O 4 w [ p K r w 8 ; G H l.#       $ 3 J 3 $     + $ ] 4 j $ e j ~ @ j A p e 8 2 W g . e a.P / <.$.& j - 5             ",
"    f S V &.b e p a $ = r t * j *.O , ;   + & a I a $ + + + $ a K r b 4 ; @ ; w q ; . 8 f # $ 8 ; o z.* ! e [ 3 } D .           ",
"      w 4 O e t -.;.{ 8 = :.n ; c V $.4 g 8 ; 4 # O [ $ & $ # e & = d t # c t S w     w 4 X 4 w [ p I W } 3 V G H R & +         ",
"  8 f 8 . $ ; e P  ...8 _ 4 # ; 4 [ ( K r t * ; ; O n p p F , / q 8 2 c a }  .# $ $ ; l V &.b e p a & ) x.w.( j ~  .$           ",
"+ $ e ;   +   # p k l .   f $ * t & 4 & U p p 0 * 3.c.[ v.l.M e 0 8 m ; N B e b @ a  .b.e O e t -.5 W . U :.n ; @ ; 8           ",
"+ $ v 4 g     ; N n.( &..   $ v 4 w w { j ( } m.y.O X X  .t a K Y f   8 _ 1 P a t K M.W ; $ ; 4 p e } 3 ..c 0 & 4 . +           ",
"+ & a K r g $ e b.o.N.u n ; [ p K r ; $ # G H l.[ $ & E ; & 4 E B.X.      y * / e 3 _ =.9 f 8 $ V o.H , 4 k  .# . 8   8 f 8     ",
"+ $ 4 & 2 r t , a k p >.:.v O a $ 2 r t ( 0 ^  .. +   j W w w { s +   + f q 0 S ; .   f . W g . 4 y ~ @ y ^ > 4 E   + $ @ $     ",
"  8 ; e & = h / N H <.c ' p q.;.q $ U p j.o n w 8 + . 3 k l & ; +.$ 9 $ $ . 9 f 8 V.s.Y _ 2 r V O y c ; w * P } D . =.f X & +   ",
"  + $ v 4 E ; * j A :.< A p p @ b.h C.4 V o n w     ; N B e V @ a 3 &.3 p . +     8 9 Z.+ 9 2 7.u A.G t q b G H R V r B e & +   ",
"  + & a K r t 4 ; n o b { ; $ #  .k  .; [ O | Q g $ e L @.P a t I I o.S.a E =.+ f . { _ j d . U c E 2 d t & f ^ F ( E ) 3 $     ",
"    $ 4 & = d 0 & , t.e 0 8   ; G B e b 4 P - D.Q b 4 $ < u i * P a P a F 3.3 = Y ; $ ; d F.N =.j q 8 = a 4 w O , w f W g 8     ",
"    8 w q 8 2 W ; # p K r g $ e L @.P a t I J x.' W w . e $.e t ( 3.[ 3.n O p & = r t * y *. .$   .   _ 4 w $ e ;   8 . 8       ",
"8 f 8 8 . 8 + ..h 0 e & 2 r b 4 $ < u i 4 a 3 y =.. 8 8 $ $ . 8 g @ X e t -.;.q 8 2 :.n ; 4 t 8       8 . . 9 f 8 8 f 8         ",
"& 4 ;   + + $ 3 k 3 b e E %.h g . 4 v e ; $ . $ e ;     + +   . E [ [ ; 4 a c g 8 5 e w $ n , ;       8 j - 5     ; e $         ",
"E ] 4 g     ; N B e 3.O p G ..8 8 $ # & 9 f   $ v 4 g 8 . $ w 4 a ( O # $ & $ 8 g q ..$ 8 ; $.4 g   + . 3 } D . j c F $ +       ",
"E a K r g $ e L @.P a t I J W f   ; 4 . . e ; & a K r 0 e o u b K I F 4 j   + . 3 C G.4 w [ p K r w 8 ; G H R V r ! * & + 8 f 8 ",
"$ 4 & = Q b 4 $ < u i 4 p ( w 8 j c F $ $ v 4 t 4 & = d w., $.n > k.> ^ r w 8 ; G H H.i 4 p a $ = r t * j A F a q.6 l $   w S # ",
"$ ; q 8 2 h w . 4 v * 0 [ n & w Q 4.* $ $ a K Q w.q 8 = 4 3.[ V u y.p $ = r t * j *.p ( t -.;.q 9 ' n n ; O u w.W E f   $ 4 t l ",
"3 w . 8 X.f 8 8 & ; [  .K 7 t l C.) l . . 4 E ' W 0 8 =.> :.] * t -.;.q 8 = :.n ; @ ; w 4 a c g $ ( O 0 & 4 V 3 C D . =.f O y 6 ",
"2 Q g 8   + + + . 4 V c ) J.W b.c p t 8   g e R } l . $ p K.N t @ a c w + _ 4 w $ 4 .   $ & $   & p K r ; f $ T H R V r B , * 5 ",
"L.= W . . & $   $ v e ..+ @.w  .k u 4 g   8 b o.B * # . ( 7 k   $ & $ 8 f 9 f   8 f 8   8 f   + $ 4 & = Q w $ f ^ F ( E )  .b 4 ",
"  X.. ; 4 O 4 w [ p K r w 8 ; G H P.K r g $ 4 L @.P ( y K J Q f + +   g h j 8 . 8 +     $ e ;   8 w q 8 = p e w O , w f W g 8 . ",
"    f S V &.b e p a $ = r t e j A c & = r t 4 $ y , i e a 3 g 8     $ 3 k 3 t W w 8   + $ v 4 j 8 8 .   _ 4 ; $ e ;   8 . 8     ",
"    8 ; O $.O < : K  .~ ) :.$.# 3 V @ ~ 2  .; $ n I., [ E & 8     + & ,.U., p J l $   + & ( Y.l $ +     8 . 8 8 . 8             "
};
