/* XPM */
static char *result[] = {
/* columns rows colors chars-per-pixel */
"64 64 61 1 ",
"  c #000000",
". c #090605",
"X c #0B0807",
"o c #0E0A09",
"O c #130D0B",
"+ c #16110A",
"@ c #1C160F",
"# c #1E180F",
"$ c #121212",
"% c #1C1411",
"& c gray12",
"* c #241D13",
"= c #201D1C",
"- c #2D2417",
"; c #27221B",
": c #2D241A",
"> c #352A1A",
", c #3A2E1D",
"< c #3E311F",
"1 c #252525",
"2 c #312B22",
"3 c #3F3220",
"4 c #403320",
"5 c #553B33",
"6 c #593E35",
"7 c #5C4137",
"8 c #5E4238",
"9 c #63453B",
"0 c #67483D",
"q c #694A3E",
"w c #6D4D41",
"e c #704E43",
"r c #765346",
"t c #785447",
"y c #795548",
"u c #7D7C7B",
"i c #B28D59",
"p c #BC955E",
"a c #BF9760",
"s c #C39B61",
"d c #C99F64",
"f c #CEA467",
"g c #D0A568",
"h c #D7AB6B",
"j c #DAAD6D",
"k c #DEB16F",
"l c #DEB270",
"z c #E0B16F",
"x c #E2B471",
"c c #E7B974",
"v c #EABB75",
"b c #F4C17A",
"n c #F9C57C",
"m c #FDCB7F",
"M c #848383",
"N c #8B8B8B",
"B c #919191",
"V c #9E9E9E",
"C c #A0A0A0",
"Z c #FFCC80",
"A c None",
/* pixels */
"AAAAAAAAAAAAAAAAAAAAAAAAAAAAAAAAAAAAAAAAAAAAAAAAAAAAAAAAAAAAAAAA",
"AAAAAAAAAAAAAAAAAAAAAAAAAAAAAAAAAAAAAAAAAAAAAAAAAAAAAAAAAAAAAAAA",
"AAAAAAAAAAAAAAAAAAAAAAAAAAAAAAAAAAAAAAAAAAAAAAAAAAAAAAAAAAAAAAAA",
"AAAAAAAAAAAAAAAAAAAAAAAAAAAAAAAAAAAAAAAAAAAAAAAAAAAAAAAAAAAAAAAA",
"AAAAAAAAAAAAAAAAAAAAAAAAAAAAAAAAAAAAAAAAAAAAAAAAAAAAAAAAAAAAAAAA",
"AAAAAAAAAAAAAAAAAAAAAAAAAAAAAAAAAAAAAAAAAAAAAAAAAAAAAAAAAAAAAAAA",
"AAAAAAAAAAAAAAAAAAAAAAAAAAAAAAAAAAAAAAAAAAAAAAAAAAAAAAAAAAAAAAAA",
"AAAAAAAAAAAAAAAAAAAAAAAAAAAAAAAAAAAAAAAAAAAAAAAAAAAAAAAAAAAAAAAA",
"AAAAAAAAAAAAAAAAAAAAAAAAAAAAAAAAAAAAAAAAAAAAAAAAAAAAAAAAAAAAAAAA",
"AAAAAAAAAAAAAAAAAAAAAAAAAAAAAAAAAAAAAAAAAAAAAAAAAAAAAAAAAAAAAAAA",
"AAAAAAAAAAAAAAAAAAAAAAAAAAAAAAAAAAAAAAAAAAAAAAAAAAAAAAAAAAAAAAAA",
"AAAAAAAAAAAAAAAAAAAAAAAAAAAAAAAAAAAAAAAAAAAAAAAAAAAAAAAAAAAAAAAA",
"AAAAAAAAAAAAAAAAAAAAAAAAAAAAAAAAAAAAAAAAAAAAAAAAAAAAAAAAAAAAAAAA",
"AAAAAAAAAAAAAAAAAAAAAAAAAAAAAAAAAAAAAAAAAAAAAAAAAAAAAAAAAAAAAAAA",
"AAAAAAAAAAAAAAAAAAAA  AAAAAAAAAAAAAAAA  AAAAAAAAAAAAAAAAAAAAAAAA",
"AAAAAAAAAAAAAAAAAAAA#@AAAAAAAAAAAAAAAA@#AAAAAAAAAAAAAAAAAAAAAAAA",
"AAAAAAAAAAAAAAAAAA #sp+ AAAAAAAAAAAA *fs# AAAAAAAAAAAAAAAAAAAAAA",
"AAAAAAAAAAAAAAAAAA @pp+ AAAAAAAAAAAA *sp# AAAAAAAAAAAAAAAAAAAAAA",
"AAAAAAAAAAAAAAAAAAAA++AAAAAAAAAAAAAAAA++AAAAAAAAAAAAAAAAAAAAAAAA",
"AAAAAAAAAAAAAAAAAAAA  AAAAAAAAAAAAAAAA  AAAAAAAAAAAAAAAAAAAAAAAA",
"AAAAAAAAAAAAAAAAAAAA  AAAAAAAAAAAAAAAA  AAAAAAAAAAAAAAAAAAAAAAAA",
"AAAAAAAAAAAAAAAAAAAA  AAAAAAAAAAAAAAAA  AAAAAAAAAAAAAAAAAAAAAAAA",
"AAAAAAAAAAAAAAAAAAAA  AA            AA  AAAAAAAAAAAAAAAAAAAAAAAA",
"AAAAAAAAAAAAAAAAAAAA  AA##@######@#@AA  AAAAAAAAAAAAAAAAAAAAAAAA",
"AAAAAAAAAAAAAAAAAAAA   @ajjhhhhhhhjs@   AAAAAAAAAAAAAAAAAAAAAAAA",
"AAAAAAAAAAAAAAAAAAAA***<znnnnnnnnnnl<*-*AAAAAAAAAAAAAAAAAAAAAAAA",
"AAAAAAAAAAAAAAAAAA @szkxmmmmmmmmmmZnvccf% AA        AAAAAAAAAAAA",
"AAAAAAAAAAAAAAAAAA@,knnnmmmmZZZZZZZZZZZx3#AA  ooooooAAAAAAAAAAAA",
"AAAAAAAAAAAAAAAA *sznmmmmZZZZZZZZZZZZZZncs+  O598985X   AAAAAAAA",
"AAAAAAAAAAAAAAAA *znmmZZZZZZZmmZZZZZZZZZZj+ o%0weee9%OOOAAAAAAAA",
"AAAAAAAAAAAAAAAA *jnmZZZZmZZZZZZZZZZZZZZZj+.5qrrytytwew9o AAAAAA",
"AAAAAAAAAAAAAAAA@<xnmmZZZZZZZZZZZZZZZZZZZl>*69rrwwqwyyywo AAAAAA",
"AAAAAAAAAAAAAA @plmmZmZZZZZZZZZZZZZZZZZZZZxf#%99%Xo%wyywo AAAAAA",
"AAAAAAAAAAAAAA #jmmZZZZZZZZZZZZZZZZZZZZZZZZc#.55%Xo%6wyw%OAAAAAA",
"AAAAAAAAAAAAAA @hnmZZZZZZZZZZZZZZZZZZZZZZZZl# .O6995O%eye6X AAAA",
"AAAAAAAAAAAAAA #hbclmZZZZZZZZZZZZncxnZZZZZZx# X%9ee9+%9wywX AAAA",
"AAAAAAAAAAAAAA #hh->cmZZZZZZZZZZZk:,cZZZZZZl@.69eytrw8+%w9X AAAA",
"AAAAAAAAAAAAAA #kh><lmljjjjjjjjlZl>3cZZZZZZx#O9eyytty9.owwX AAAA",
"AAAAAAAAAAAAAA @hbbcmk;+++$+++O>xmcvZZZZZZZl#o9eytyty0Xow0X AAAA",
"AAAAAAAAAAAAAA #hnmmmk>@@###@%@,xZZZZZZZZZZl*o9wwwwwy0.owwX AAAA",
"AAAAAAAAAAAAAA #hmmZZmllxlxlxxlcmZZZZZZZmZZx#o99@oo@98.ow9X AAAA",
"AAAAAAAAAAAAAA #hbmZZZZZZZZZZZZZZZZZZZZZZZZl#o55+oo%98.ow0X AAAA",
"AAAAAAAAAAAAAA #hnmZZZZZZZZZZZZZZZZZZZZZZZZx# .+69weyq.ow0X AAAA",
"AAAAAAAAAAAAAA #hnmZZZZZZZZZZZZZZZZZmZZZZZZl#  o9etyy9.ow0X AAAA",
"AAAAAAAAAAAAAA @hnmZZZZZZZZmZmZZZZZmZZZZZZZl#  X9ewee8.owqX AAAA",
"AAAAAAAAAAAAAA #hmmZZZZZZZZZZZZZZZZZZZZZZZZx# o$566665%%w0X AAAA",
"AAAAAAAAAAAAAA #hnmZZZZZZZZZZZZZZZZZZZZZZZZl#o77O.oX.+9wyqX AAAA",
"AAAAAAAAAAAAAA @hnmZZZZZZmZZZZZZmZZZZZZmZZZx#O99%oooo%ryw7X AAAA",
"AAAAAAAAAAAAAA #hnmZZZZZZZZZZZZZZZZZmZZZZZZx@X9w99w0wwtw%XAAAAAA",
"AAAAAAAAAAAAAA @hnmZZZZZZZZZZZZmZZZZZZZmZZZx4-6769eyttw6o AAAAAA",
"AAAAAAAAAAAAAA @jnZZZZZZZZZZZZZZZZZZZZmmZZZmvd@..%0ee9OXAAAAAAAA",
"AAAAAAAAAAAAAA$:slnZmmmmmmmmZmmZmmmmmmmmmZZZZj>@@*6995$$AAAAAAAA",
"AAAAAAAAAAAACVNu;<xnnnnnnnnnnnnnnnnnnnnnnnnnnbjjjp*..=uBVVVVAAAA",
"AAAAAAAAAAAAVVVB12aggggggggggggggggggggggggggggggiO  $uNMNVVAAAA",
"AAAAAAAAAAAAVVVVBu#O+++++++++++++++++++++++++++++O    o$o1BVVVAA",
"AAAAAAAAAAAAVVVVCN&$$%$$$$$$$$+$$$$$$$$$$$$$$$$$$$%$$$$$$1BVVVAA",
"AAAAAAAAAAAAAAVVVVNNNNNNNNNNNNNNNNNNNNNNNNNNNNNNNNNNNNNNNNVVVVAA",
"AAAAAAAAAAAAAAVVVVVVVVVVVCVVVCVVVVVVVCVVVVVCVVCVCVVVCVVVVCVVVVAA",
"AAAAAAAAAAAAAAAAAAAAAAAAAAAAAAAAAAAAAAAAAAAAAAAAAAAAAAAAAAAAAAAA",
"AAAAAAAAAAAAAAAAAAAAAAAAAAAAAAAAAAAAAAAAAAAAAAAAAAAAAAAAAAAAAAAA",
"AAAAAAAAAAAAAAAAAAAAAAAAAAAAAAAAAAAAAAAAAAAAAAAAAAAAAAAAAAAAAAAA",
"AAAAAAAAAAAAAAAAAAAAAAAAAAAAAAAAAAAAAAAAAAAAAAAAAAAAAAAAAAAAAAAA",
"AAAAAAAAAAAAAAAAAAAAAAAAAAAAAAAAAAAAAAAAAAAAAAAAAAAAAAAAAAAAAAAA",
"AAAAAAAAAAAAAAAAAAAAAAAAAAAAAAAAAAAAAAAAAAAAAAAAAAAAAAAAAAAAAAAA"
};
