/* XPM */
static char *result[] = {
/* columns rows colors chars-per-pixel */
"58 64 143 2 ",
"   c #010101",
".  c #060909",
"X  c #0C0C0B",
"o  c #08100F",
"O  c #11110F",
"+  c #001317",
"@  c #0C1716",
"#  c #00181E",
"$  c #0E1A19",
"%  c #121211",
"&  c #1D1D1B",
"*  c #1A1A17",
"=  c #22221F",
"-  c #001D23",
";  c #00262F",
":  c #002F3C",
">  c #00323F",
",  c #252522",
"<  c #2A2A26",
"1  c #2D2D29",
"2  c #32322D",
"3  c #3B3B34",
"4  c #3F3F39",
"5  c #42423B",
"6  c #00586D",
"7  c #3A6D69",
"8  c #474740",
"9  c #4B4B43",
"0  c #53534A",
"q  c #59594F",
"w  c #565652",
"e  c #5C5C53",
"r  c #585858",
"t  c #5E6158",
"y  c #606056",
"u  c #646459",
"i  c #6A695E",
"p  c #536464",
"a  c #566968",
"s  c #5A6E6D",
"d  c #407975",
"f  c #427C78",
"g  c #5E7372",
"h  c #656565",
"j  c #6D6D62",
"k  c #6A6A69",
"l  c #717165",
"z  c #757569",
"x  c #7B7B6E",
"c  c #637877",
"v  c #687F7E",
"b  c #657B7A",
"n  c #767676",
"m  c #7F7F71",
"M  c #7B7B79",
"N  c #44817D",
"B  c #69807F",
"V  c #838376",
"C  c #86867A",
"Z  c #8C8C7D",
"A  c #006D87",
"S  c #007690",
"D  c #007A95",
"F  c #007D99",
"G  c #498A85",
"H  c #4D918D",
"J  c #519A95",
"K  c #549F9A",
"L  c #6A8180",
"P  c #6D8A86",
"I  c #758D8C",
"U  c #659A96",
"Y  c #7F9794",
"T  c #55A09B",
"R  c #59A7A2",
"E  c #59A9A4",
"W  c #6FA7A4",
"Q  c #68C4BE",
"!  c #00A3CC",
"~  c #00B1DA",
"^  c #00C0EA",
"/  c #00C6F2",
"(  c #00CBFA",
")  c #6DCAD5",
"_  c #6DCDD8",
"`  c #76DED7",
"'  c #77E1DA",
"]  c #6DE0EE",
"[  c #868685",
"{  c #8F8F80",
"}  c #8D8D8A",
"|  c #959585",
" . c #90908C",
".. c #9B9B8B",
"X. c #819A97",
"o. c #809B9A",
"O. c #A0A08F",
"+. c #A3A392",
"@. c #A9A997",
"#. c #ADAD9B",
"$. c #B0B09D",
"%. c #88A5A3",
"&. c #8CA9A8",
"*. c #92B1AF",
"=. c #93B3B2",
"-. c #B5B5A2",
";. c #BABAA7",
":. c #BEBEAA",
">. c #9FC1BF",
",. c #C3C3AE",
"<. c #C6C6B1",
"1. c #CACAB5",
"2. c #CACABB",
"3. c #D3D3BD",
"4. c #8EC4C1",
"5. c #90CBC7",
"6. c #87DBD5",
"7. c #B0D6D4",
"8. c #B2D8D6",
"9. c #B7DEDC",
"0. c #B9E0DF",
"q. c #86FFF7",
"w. c #87FFFA",
"e. c #8AFFFC",
"r. c #9AFFF9",
"t. c #ACFFFC",
"y. c #A4FFFB",
"u. c #B0FFFC",
"i. c #BDFFFB",
"p. c #DCDCC5",
"a. c #DFDFC9",
"s. c #E3E3CB",
"d. c #E8E8CF",
"f. c #ECECD4",
"g. c #F0F0D7",
"h. c #F5F5DB",
"j. c #F9F9DF",
"k. c #D6FFFF",
"l. c #DAFFFF",
"z. c #FFFFE4",
"x. c #FFFFE9",
"c. c #FFFFF2",
"v. c None",
/* pixels */
"v.v.v.v.v.v.v.v.v.v.v.v.v.v.v.v.v.v.v.v.v.v.v.v.v.v.v.v.    v.v.v.v.v.v.v.v.v.v.v.v.v.v.v.v.v.v.v.v.v.v.v.v.v.v.v.v.",
"v.v.v.v.v.v.v.v.v.v.v.v.v.v.v.v.v.v.v.v.v.v.v.v.v.v.v.v.    v.v.v.v.v.v.v.v.v.v.v.v.v.v.v.v.v.v.v.v.v.v.v.v.v.v.v.v.",
"v.v.v.v.v.v.v.v.v.v.v.v.v.v.v.v.v.v.v.v.v.v.v.v.v.v.            v.v.v.v.v.v.v.v.v.v.v.v.v.v.v.v.v.v.v.v.v.v.v.v.v.v.",
"v.v.v.v.v.v.v.v.v.v.v.v.v.v.v.v.v.v.v.v.v.v.v.v.v.v.            v.v.v.v.v.v.v.v.v.v.v.v.v.v.v.v.v.v.v.v.v.v.v.v.v.v.",
"v.v.v.v.v.v.v.v.v.v.v.v.v.v.v.v.v.v.v.v.v.v.v.v.      + S D #       v.v.v.v.v.v.v.v.v.v.v.v.v.v.v.v.v.v.v.v.v.v.v.v.",
"v.v.v.v.v.v.v.v.v.v.v.v.v.v.v.v.v.v.v.v.v.v.v.v.      - ^ / ;       v.v.v.v.v.v.v.v.v.v.v.v.v.v.v.v.v.v.v.v.v.v.v.v.",
"v.v.v.v.v.v.v.v.v.v.v.v.v.v.v.v.v.v.v.v.v.v.      - A F ~ ~ A 6 -       v.v.v.v.v.v.v.v.v.v.v.v.v.v.v.v.v.v.v.v.v.v.",
"v.v.v.v.v.v.v.v.v.v.v.v.v.v.v.v.v.v.v.v.v.v.      > ( ( ! ! ! ! :         v.v.v.v.v.v.v.v.v.v.v.v.v.v.v.v.v.v.v.v.v.",
"v.v.v.v.v.v.v.v.v.v.v.v.v.v.v.v.v.v.v.v.v.9 j j i P ] ] _ ) ) ) P i j j 9 v.v.v.v.v.v.v.v.v.v.v.v.v.v.v.v.v.v.v.v.v.",
"v.v.v.v.v.v.v.v.v.v.v.v.v.v.v.            z x.z.z.z.z.z.z.z.z.j.z.z.z.x.V             v.v.v.v.v.v.v.v.v.v.v.v.v.v.v.",
"v.v.v.v.v.v.v.v.v.v.v.v.v.v.v.    3 0 9 9 O.z.z.z.z.z.z.z.z.z.z.z.z.z.x.@.9 9 9 3     v.v.v.v.v.v.v.v.v.v.v.v.v.v.v.",
"v.v.v.v.v.v.v.v.v.v.v.v.v.        -.z.j.j.z.z.z.z.z.z.z.z.z.z.z.z.z.z.z.z.z.z.z.<.X       v.v.v.v.v.v.v.v.v.v.v.v.v.",
"v.v.v.v.v.v.v.v.v.v.v.v.v.1 2 2 3 1.z.z.z.z.z.z.z.z.z.z.z.z.z.z.z.z.z.z.z.z.z.z.3.3 < .   v.v.v.v.v.v.v.v.v.v.v.v.v.",
"v.v.    v.v.v.v.v.v.v.  = p.g.f.g.j.z.z.z.z.z.z.z.z.z.z.z.z.z.z.z.z.z.z.z.z.z.z.z.h.<.%       v.v.v.v.v.v.v.    v.v.",
"v.v.= , v.v.v.v.v.v.v.= 5 f.z.z.z.z.z.z.z.z.z.z.z.z.z.z.z.z.z.z.z.z.z.z.z.z.z.z.z.z.p.3 = , = v.v.v.v.v.v.v., = v.v.",
"  . #.f.y   v.v.v.  3 p.f.z.z.z.z.z.z.z.z.z.z.z.z.z.z.z.z.z.z.z.z.z.z.z.z.z.z.z.z.z.z.d.d.d.s.9   v.v.v.  0 d.-.X   ",
"  . ;.x.l X % v.v.  5 h.z.z.z.z.z.z.z.z.z.z.z.z.z.z.z.z.z.z.z.z.z.z.z.z.z.z.z.z.z.z.z.z.z.z.z.9   v.v.O X y x.1.X   ",
"  . ;.x.s.3.x       4 h.z.z.z.z.z.z.z.z.z.z.z.z.z.z.z.z.z.z.z.z.z.z.z.z.z.z.z.z.z.z.z.z.z.z.z.9       j 3.s.z.<.X   ",
"  . ;.z.z.z.Z       5 h.z.z.z.z.z.z.z.z.z.z.z.z.z.z.z.z.z.z.z.z.z.z.z.j.j.j.j.j.h.z.z.z.z.z.h.9       m z.z.x.<.X   ",
"  . ;.z...w C ;.l   4 h.z.z.z.z.z.z.z.z.z.z.z.z.z.z.z.z.z.z.z.z.z.z.Z 9 5 9 9 9 9 5 u f.z.z.z.9   u ;.V 5 C z.<.X   ",
"  . :.x.z X V c.+.  4 h.z.z.z.z.z.z.z.z.z.z.z.z.z.z.z.z.z.z.z.z.z.z.e               , d.z.z.z.9   | x.V   0 z.1.X   ",
"v.v.e i Z +.{ z 9   4 h.z.z.z.z.z.z.z.z.z.z.z.z.z.z.z.z.z.z.z.z.z.z.,.| ..| | | | | +.h.z.z.j.9   3 i m ..C i e v.v.",
"v.v.    ..c.| % X   5 h.z.z.z.z.z.z.z.z.z.z.z.z.z.z.z.z.z.z.z.z.z.z.z.z.z.z.z.z.z.z.z.z.z.z.z.9       x c.#.    v.v.",
"v.v.v.v.e x V  .e   4 h.z.z.z.z.z.z.z.z.z.z.z.z.z.z.z.z.z.z.z.z.z.z.z.z.z.z.z.z.z.z.z.z.z.z.j.9   9 V V m y v.v.v.v.",
"v.v.v.v.    z c.+.  5 h.z.z.z.z.z.z.z.z.z.z.z.z.z.z.z.z.z.z.z.z.z.z.z.z.z.z.z.z.z.z.z.z.z.z.j.9   | c.C     v.v.v.v.",
"v.v.v.v.v.  e ..y   4 h.z.z.z.z.z.z.z.z.z.z.z.z.z.z.z.z.z.z.z.z.z.z.z.z.z.z.z.z.z.z.z.z.z.z.z.9   q O.y   v.v.v.v.v.",
"v.v.v.v.v.v.v.      5 j.x.z.z.z.z.z.z.z.z.z.z.z.z.z.z.z.z.z.z.z.z.z.z.z.z.z.z.z.z.z.z.z.z.z.z.9         v.v.v.v.v.v.",
"v.v.v.v.v.v.v.      3 -.,.j.z.z.z.z.z.z.z.z.z.z.z.z.z.z.z.z.z.z.z.z.z.z.z.z.z.z.z.z.z.z.j.1.-.5       v.v.v.v.v.v.v.",
"v.v.v.v.v.v.v.v.v.v.v.. < s.z.z.z.z.z.z.z.z.z.z.z.z.z.x.z.z.z.x.z.z.z.z.z.z.z.z.z.z.z.z.f.2 . v.v.v.v.v.v.v.v.v.v.v.",
"v.v.v.v.v.v.v.v.v.v.v.  = d.z.z.z.z.z.z.z.f.3.3.3.p.3.3.3.p.3.3.3.3.p.3.d.z.z.z.z.z.z.z.f.1   v.v.v.v.v.v.v.v.v.v.v.",
"v.v.v.v.v.v.v.v.v.v.v.  , d.z.z.z.z.z.z.z.| X % X % % O X % % O O O % X V z.z.z.z.z.z.z.g.1   v.v.v.v.v.v.v.v.v.v.v.",
"v.v.v.v.v.v.v.v.v.v.v.  = 1.s.j.z.z.z.z.x.| * & & & & & & & & & & & & * Z z.z.z.z.z.j.s.3.<   v.v.v.v.v.v.v.v.v.v.v.",
"v.v.v.v.v.v.v.v.v.v.v.  . * 1 3.z.z.z.z.z.h.a.s.a.s.a.s.a.s.p.s.a.a.s.a.f.z.z.z.z.z.p.2 * .   v.v.v.v.v.v.v.v.v.v.v.",
"v.v.v.v.v.v.v.v.v.v.v.      X ,.h.z.z.z.z.z.z.z.z.z.z.z.z.z.z.z.z.x.x.z.z.z.z.z.j.h.1.*       v.v.v.v.v.v.v.v.v.v.v.",
"v.v.v.v.v.  v.v.v.v.v.v.v.    1 3 1.z.z.z.z.z.z.z.z.z.z.z.z.z.z.z.z.z.z.z.z.z.x.3.5 < .   v.v.v.v.v.v.v.    v.v.v.v.",
"v.v.v.v..     v.v.v.v.v.v.      . -.z.z.z.z.z.z.z.z.z.z.z.z.z.z.z.z.z.z.z.z.z.z.,.X       v.v.v.v.v.v.v..   v.v.v.v.",
"v.v.v.  c =.s         v.v.v.v.    3 0 ;.x.z.z.z.z.z.z.z.z.z.z.z.z.z.z.z.z.x.<.0 4     v.v.v.v.v.      p *.B     v.v.",
"v.v.    X.l.I         v.v.v.v.        ..x.z.z.z.z.z.z.z.z.z.z.z.z.z.z.z.z.z.@.        v.v.v.v.        b l.&.    v.v.",
"v.v.    U t.5.I I Y c .         . i { 3.z.z.z.z.z.z.z.z.z.z.z.z.z.z.z.z.z.z.p.Z j .         . g I I I 4.t.W     v.v.",
"v.v.    J w.t.l.k.l.=..           :.x.z.z.z.z.z.z.z.z.z.z.z.z.z.z.z.z.z.z.z.z.x.1.X           =.l.k.l.t.e.R     v.v.",
"v.v.    J e.r.t.i.k.9.L a X . y m p.z.z.z.z.z.z.z.z.z.z.z.z.z.z.z.z.z.z.z.z.z.z.s.V i X . p v 8.k.i.t.r.e.E     v.v.",
"v.v.    J e.q.q.y.k.k.l.9.@ X 3.x.z.z.z.z.z.z.z.z.z.z.z.z.z.z.z.z.z.z.z.z.z.z.z.z.x.p.O X 7.l.k.k.t.q.q.e.E     v.v.",
"v.v.    J e.q.q.6.%.%.%.X.t u a.x.z.z.z.z.z.z.z.z.z.z.z.z.z.z.z.z.z.z.z.z.z.z.z.z.z.d.u e Y %.%.%.6.q.q.e.R     v.v.",
"v.v.    J e.q.e.T       , s.z.z.z.z.z.z.z.z.z.z.z.z.z.z.z.z.z.j.z.z.z.z.z.z.z.z.z.z.z.z.f.1       H e.e.e.R     v.v.",
"v.v.    N ) ` q.K   X 3 q f.z.z.z.z.z.z.z.z.z.z.z.z.z.z.z.z.z.j.z.z.z.z.z.z.z.z.z.z.z.z.h.e 3 %   H e.' ) N     v.v.",
"v.v.v.v..   d e.T   3 f.h.z.z.z.z.z.z.z.z.z.z.z.z.z.z.z.z.z.z.z.z.z.z.z.z.z.z.z.z.z.z.z.z.h.f.8   H e.G   . v.v.v.v.",
"v.v.v.v.    7 ' G   5 h.z.z.z.z.z.z.z.z.z.z.z.z.z.z.z.z.z.z.z.z.z.z.z.z.z.z.z.z.z.z.z.z.z.z.z.9   f ' d     v.v.v.v.",
"v.v.v.v.v.v.@ $ X   5 h.z.z.z.z.z.z.z.z.z.z.z.z.z.z.z.z.z.z.z.z.z.z.z.z.z.z.z.z.z.z.z.z.z.z.z.9   X $ @ v.v.v.v.v.v.",
"v.v.v.v.v.v.v.      3 f.g.d.s.z.z.z.z.z.z.z.z.z.z.z.z.z.z.z.z.z.z.z.z.z.z.z.z.z.z.z.z.d.d.g.g.8       v.v.v.v.v.v.v.",
"v.v.v.v.v.v.v.v.v.  , } [ 1 1 3.z.z.z.z.z.z.z.z.z.z.z.z.z.z.z.z.z.z.z.z.z.z.z.z.z.z.p.3 1 M  .1     v.v.v.v.v.v.v.v.",
"v.v.v.v.v.v.v.v.v.  & n k X X <.j.z.z.z.z.z.z.z.z.z.z.z.z.z.z.z.z.z.z.z.z.z.z.z.z.h.2.* . h M ,   v.v.v.v.v.v.v.v.v.",
"v.v.v.v.v.v.v.v.v.v.v.= & v.v.3 5 2.z.z.z.z.z.z.z.z.z.z.z.z.z.z.z.z.z.z.z.z.z.z.3.8 3 v.v.* & v.v.v.v.v.v.v.v.v.v.v.",
"v.v.v.v.v.v.v.v.v.v.v.    v.v.  . ;.z.z.z.z.z.z.z.z.z.z.z.z.z.z.z.z.z.z.z.z.z.z.<..   v.v.    v.v.v.v.v.v.v.v.v.v.v.",
"v.v.v.v.v.v.v.v.v.v.v.v.v.v.v.    5 e :.z.z.z.z.z.z.z.z.z.z.z.z.z.z.z.z.z.x.1.e 8 .   v.v.v.v.v.v.v.v.v.v.v.v.v.v.v.",
"v.v.v.v.v.v.v.v.v.v.v.v.v.v.v.        ..x.z.z.z.z.z.z.z.z.z.z.z.z.z.z.z.z.z.@.        v.v.v.v.v.v.v.v.v.v.v.v.v.v.v.",
"v.v.v.v.v.v.v.v.v.v.v.v.v.v.v.v.      ..x.z.z.z.z.z.z.z.z.z.z.z.z.z.z.z.z.x.@.      v.v.v.v.v.v.v.v.v.v.v.v.v.v.v.v.",
"v.v.v.v.v.v.v.v.v.v.v.v.v.v.v.v.v.    ..x.z.z.z.z.z.x.z.x.x.x.x.z.z.z.z.z.x.@.    v.v.v.v.v.v.v.v.v.v.v.v.v.v.v.v.v.",
"v.v.v.v.v.v.v.v.v.v.v.v.v.v.v.v.v.    ..z.z.z.z.z.a.| Z Z Z Z { p.z.z.z.z.x.#.    v.v.v.v.v.v.v.v.v.v.v.v.v.v.v.v.v.",
"v.v.v.v.v.v.v.v.v.v.v.v.v.v.v.        ..x.z.z.z.x.:..           -.x.z.z.z.x.@.        v.v.v.v.v.v.v.v.v.v.v.v.v.v.v.",
"v.v.v.v.v.v.v.v.v.v.v.v.v.v.v., 1 8 0 ;.x.z.z.d.$.{ X         . V $.s.z.z.z.<.0 9 1 , v.v.v.v.v.v.v.v.v.v.v.v.v.v.v.",
"v.v.v.v.v.v.v.v.v.v.v.v.v.  X h [ a.z.z.z.x.x.#..   v.v.v.v.v.v.    +.x.x.z.x.z.s.[ k X   v.v.v.v.v.v.v.v.v.v.v.v.v.",
"v.v.v.v.v.v.v.v.v.v.v.v.v.  . w k #.1.1.1.1.1.|     v.v.v.v.v.v.    [ 2.2.2.2.1.-.k r X   v.v.v.v.v.v.v.v.v.v.v.v.v.",
"v.v.v.v.v.v.v.v.v.v.v.v.v.v.v.. . X O X X X X X v.v.v.v.v.v.v.v.v.v.X O X X X X X . . v.v.v.v.v.v.v.v.v.v.v.v.v.v.v.",
"v.v.v.v.v.v.v.v.v.v.v.v.v.v.v.                  v.v.v.v.v.v.v.v.v.v.                  v.v.v.v.v.v.v.v.v.v.v.v.v.v.v."
};
