/* XPM */
static char *result[] = {
/* columns rows colors chars-per-pixel */
"44 44 6 1 ",
"  c #18215D",
". c #E17CB7",
"X c #503197",
"o c #BF53C9",
"O c #EFAAA5",
"+ c white",
/* pixels */
"                                            ",
"    .Xoo.XXoo.Xoooooo.Xoooooo. Xooooo.Xo    ",
"   o.Xo.Xoooo.Xoooooo.Xoooooo.XXooooo.Xo.   ",
"  oo.Xooooooo.Xoooooo.Xoooooo.Xoo..oo.Xoo.  ",
"XoOX.X.......oX......oX......oX..oo..oXOXo.X",
"XoXX.o                                oXXo.X",
"X...oX............... ...............  ...oX",
"XXXXXX.OXooooooooooOX .OXooooooooooOX  XXXXX",
"Xooo.X.XXooooooooooXX .XXooooooooooXX  ooo.X",
"Xooo.X.oooooooooooooo .oooooooooooooo  ooo.X",
"Xooo.X.oooooooooooooo .oooooooooooooo  ooo.X",
"Xooo.X.oooooooooooooo .OXooooooooooOX  ooo.X",
"Xooo.X.oooooooooooooo .XXooooooooooXX  ooo.X",
"Xooo.X.oooooooooooooo                  ooo.X",
"X...oX.oooooooooooooo .OXooooooooooOX  ...oX",
"XXXXXX.oooooooooooooo .XXooooooooooXX  XXXXX",
"Xooo.X.oooooooooooooo .oooooooooooooo  ooo.X",
"Xooo.X.oooooooooooooo .oooooooooooooo  ooo.X",
"Xooo.X.oooooooooooooo .oooooooooooooo  ...oX",
"Xooo.X.OXooooooooooOX .OXooooooooooOX  XXXXX",
"Xooo.X.XXooooooooooXX .XXooooooooooXX  ooo.X",
"Xooo.X                                 ooo.X",
"X...oXoooooooooooooooXoooooooooooooooX ...oX",
"XXXXXXo.............OXoOo.........OoOX XXXXX",
"Xooo.Xo.ooooooooo...OXooo.........ooOX ooo.X",
"Xooo.Xo..........o..OXo.............OX ooo.X",
"Xooo.Xo.o.........o.OXo.............OX ooo.X",
"Xooo.Xo...........o.OXo.............OX ooo.X",
"Xooo.Xo.o.........o.OXo.............OX ooo.X",
"Xooo.Xo...........o.OXo.............OX ooo.X",
"X...oXo.o.........o.OXo.............OX ...oX",
"XXXXXXo...........o.OXo.............OX XXXXX",
"Xooo.Xo.o.........o.OXo.............OX ooo.X",
"Xooo.Xo...........o.OXo.............OX ooo.X",
"Xooo.Xo.o.o.o.o.o.o.OXoOo.........OoOX ...oX",
"Xooo.Xo.............OXooo.........ooOX XXXXX",
"Xooo.XOOOOOOOOOOOOOOOXOOOOOOOOOOOOOOOX ooo.X",
"Xooo.XXXXXXXXXXXXXXXXXXXXXXXXXXXXXXXXX ooo.X",
" oOX.o                                oOXo.X",
" oXX.Xooooooo.Xoooooo.Xoooooo.Xoooooo.XXXo.X",
"  oo.Xooooooo.Xoooooo.Xoooooo.Xoooooo.Xoo.X ",
"  X..Xooooooo.Xoooooo.Xoooooo.Xoooooo.X..X  ",
"   XoX.......oX......oX......oX......oXoX   ",
"    XXXXXXXXXXXXXXXXXXXXXXXXXXXXXXXXXXXX    "
};
